<?xml version="1.0" ?><svg xmlns="http://www.w3.org/2000/svg" xmlns:xlink="http://www.w3.org/1999/xlink" version="1.1" viewBox="0 0 94 94" style="enable-background:new 0 0 94 94;" xml:space="preserve"><style type="text/css">
	.st0{display:none;}
	.st1{display:inline;fill:#FEA900;}
	.st2{display:inline;}
	.st3{display:inline;fill:#F9CD6C;}
	.st4{display:inline;fill:none;stroke:#000000;stroke-width:0.25;stroke-miterlimit:10;}
	.st5{stroke:#000000;stroke-linecap:round;stroke-linejoin:round;stroke-miterlimit:10;}
	.st6{opacity:0.2;stroke:#000000;stroke-linecap:round;stroke-linejoin:round;stroke-miterlimit:10;}
	.st7{fill:#F12A00;stroke:#000000;stroke-linecap:round;stroke-linejoin:round;stroke-miterlimit:10;}
	.st8{fill:#FBECCF;stroke:#000000;stroke-linecap:round;stroke-linejoin:round;stroke-miterlimit:10;}
	.st9{opacity:0.2;fill:#F12A00;}
	.st10{fill:#F7C86C;stroke:#000000;stroke-linecap:round;stroke-linejoin:round;stroke-miterlimit:10;}
	.st11{fill:none;stroke:#000000;stroke-linecap:round;stroke-linejoin:round;stroke-miterlimit:10;}
	.st12{display:inline;stroke:#000000;stroke-linecap:round;stroke-linejoin:round;stroke-miterlimit:10;}
	.st13{fill:#FAAC01;stroke:#000000;stroke-linecap:round;stroke-linejoin:round;stroke-miterlimit:10;}
	.st14{fill:#FAAC01;}
	.st15{display:inline;fill:#FAEBCE;stroke:#000000;stroke-width:0.25;stroke-miterlimit:10;}
	.st16{display:inline;fill:none;stroke:#000000;stroke-width:1.0164;stroke-miterlimit:10;}
	.st17{display:inline;fill:#FAEBCE;stroke:#000000;stroke-width:1.0164;stroke-miterlimit:10;}
	.st18{fill:#FEA900;}
	.st19{fill:#F9CD6C;}
	.st20{fill:none;stroke:#000000;stroke-width:1.0164;stroke-miterlimit:10;}
	.st21{fill:#FAEBCE;stroke:#000000;stroke-width:1.0164;stroke-miterlimit:10;}
	.st22{display:inline;fill:#FAEBCE;}
	.st23{fill:#008FF5;stroke:#000000;stroke-linecap:round;stroke-linejoin:round;stroke-miterlimit:10;}
	.st24{fill:#D0E6FB;stroke:#000000;stroke-linecap:round;stroke-linejoin:round;stroke-miterlimit:10;}
	.st25{fill:#FFFFFF;stroke:#000000;stroke-linecap:round;stroke-linejoin:round;stroke-miterlimit:10;}
	.st26{fill:#75D95D;stroke:#000000;stroke-linecap:round;stroke-linejoin:round;stroke-miterlimit:10;}
	.st27{fill:#CAF3BB;}
	.st28{fill:#FFFFFF;}
	.st29{fill:#CAF3BB;stroke:#000000;stroke-linecap:round;stroke-linejoin:round;stroke-miterlimit:10;}
	.st30{display:inline;fill:#D0E6FB;stroke:#000000;stroke-linecap:round;stroke-linejoin:round;stroke-miterlimit:10;}
	.st31{stroke:#FFFFFF;stroke-linecap:round;stroke-linejoin:round;stroke-miterlimit:10;}
	.st32{fill:#B4B2FB;stroke:#000000;stroke-linecap:round;stroke-linejoin:round;stroke-miterlimit:10;}
	.st33{fill:#018BEE;}
	.st34{display:inline;fill:none;stroke:#000000;stroke-linecap:round;stroke-linejoin:round;stroke-miterlimit:10;}
	.st35{fill:#75D95D;}
	.st36{fill:#4949F7;stroke:#000000;stroke-linecap:round;stroke-linejoin:round;stroke-miterlimit:10;}
	.st37{fill:#D0E6FB;}
	.st38{fill:#6FBBF7;stroke:#000000;stroke-linecap:round;stroke-linejoin:round;stroke-miterlimit:10;}
	.st39{fill:#018BEE;stroke:#000000;stroke-linecap:round;stroke-linejoin:round;stroke-miterlimit:10;}
	.st40{fill:#B4B2FB;}
	.st41{fill:#E8E9FE;}
	.st42{fill:#B4B2FB;stroke:#000F24;stroke-miterlimit:10;}
	.st43{stroke:#000000;stroke-miterlimit:10;}
	.st44{fill:#E8E9FE;stroke:#000000;stroke-linecap:round;stroke-linejoin:round;stroke-miterlimit:10;}
	.st45{opacity:0.3;fill:#018BEE;}
	.st46{fill:#6FBBF7;}
	.st47{fill:#FAAC01;stroke:#FFFFFF;stroke-linecap:round;stroke-linejoin:round;stroke-miterlimit:10;}
	.st48{fill:#006A2F;}
	.st49{opacity:0.1;}
	.st50{fill:#FCD4CA;stroke:#000000;stroke-linecap:round;stroke-linejoin:round;stroke-miterlimit:10;}
	.st51{fill:#006A2F;stroke:#000000;stroke-linecap:round;stroke-linejoin:round;stroke-miterlimit:10;}
	.st52{fill:#4949F7;}
	.st53{fill:#F12A00;}
	.st54{fill:#D0E6FB;stroke:#018BEE;stroke-linecap:round;stroke-linejoin:round;stroke-miterlimit:10;}
	.st55{fill:#9CD7FF;}
	.st56{fill:#F7C86C;}
	.st57{opacity:0.3;stroke:#000000;stroke-linecap:round;stroke-linejoin:round;stroke-miterlimit:10;}
	.st58{opacity:0.1;stroke:#000000;stroke-linecap:round;stroke-linejoin:round;stroke-miterlimit:10;}
	.st59{opacity:0.3;fill:#006A2F;}
	.st60{stroke:#000000;stroke-width:1.0825;stroke-linecap:round;stroke-linejoin:round;stroke-miterlimit:10;}
	.st61{fill:#D0E6FB;stroke:#000000;stroke-width:1.0825;stroke-linecap:round;stroke-linejoin:round;stroke-miterlimit:10;}
	.st62{fill:#6FBBF7;stroke:#000000;stroke-width:1.0825;stroke-linecap:round;stroke-linejoin:round;stroke-miterlimit:10;}
	.st63{fill:none;stroke:#000000;stroke-width:1.0825;stroke-linecap:round;stroke-linejoin:round;stroke-miterlimit:10;}
	.st64{fill:#CAF3BB;stroke:#000000;stroke-width:0.7876;stroke-linecap:round;stroke-linejoin:round;stroke-miterlimit:10;}
	.st65{fill:#6FBBF7;stroke:#FFFFFF;stroke-linecap:round;stroke-linejoin:round;stroke-miterlimit:10;}
	.st66{opacity:0.2;}
	.st67{stroke:#E8E9FE;stroke-linecap:round;stroke-linejoin:round;stroke-miterlimit:10;}
	.st68{fill:#FCD4CA;}
	.st69{fill:#FBECCF;}
	.st70{opacity:0.1;fill:#F12A00;}
	.st71{opacity:0.5;stroke:#000000;stroke-linecap:round;stroke-linejoin:round;stroke-miterlimit:10;}
	.st72{fill:#6FBBF7;stroke:#E8E9FE;stroke-linecap:round;stroke-linejoin:round;stroke-miterlimit:10;}
	.st73{opacity:0.5;fill:#D0E6FB;}
	.st74{fill:#70BAF7;}
	.st75{fill:none;stroke:#FFFFFF;stroke-linecap:round;stroke-linejoin:round;stroke-miterlimit:10;}
	.st76{fill:#70BAF7;stroke:#70BAF7;stroke-linecap:round;stroke-linejoin:round;stroke-miterlimit:10;}
	.st77{fill:#018BEE;stroke:#018BEE;stroke-linecap:round;stroke-linejoin:round;stroke-miterlimit:10;}
	.st78{fill:#70BAF7;stroke:#000000;stroke-linecap:round;stroke-linejoin:round;stroke-miterlimit:10;}
	.st79{fill:#F9CD6C;stroke:#000000;stroke-linecap:round;stroke-linejoin:round;stroke-miterlimit:10;}
	.st80{fill:none;}
	.st81{fill:#006A2F;stroke:#006A2F;stroke-miterlimit:10;}
	.st82{fill:#B4DFFC;}
	.st83{fill:#6FBBF7;stroke:#018BEE;stroke-linecap:round;stroke-linejoin:round;stroke-miterlimit:10;}
	.st84{fill:none;stroke:#FBECCF;stroke-linecap:round;stroke-linejoin:round;stroke-miterlimit:10;}
	.st85{fill:none;stroke:#018BEE;stroke-linecap:round;stroke-linejoin:round;stroke-miterlimit:10;}
	.st86{fill:#010101;stroke:#FFFFFF;stroke-linecap:round;stroke-linejoin:round;stroke-miterlimit:10;}
	.st87{fill:#010101;stroke:#000000;stroke-linecap:round;stroke-linejoin:round;stroke-miterlimit:10;}
	.st88{fill:#75D95D;stroke:#FFFFFF;stroke-linecap:round;stroke-linejoin:round;stroke-miterlimit:10;}
	.st89{fill:#94F279;stroke:#000000;stroke-linecap:round;stroke-linejoin:round;stroke-miterlimit:10;}
	.st90{fill:#8C8CF9;}
	.st91{fill:#008FF5;}
	.st92{fill:#8CD8F9;}
	.st93{fill:#FFC043;}
	.st94{fill:#94F279;}
	.st95{fill:#FF3D1D;}
	.st96{fill:#31B1FF;}
	.st97{fill:#FFCF7B;}
	.st98{fill:#B2FF99;}
	.st99{fill:#D7D7FF;}
	.st100{fill:#FF7C6E;}
	.st101{fill:#5CC9FF;}
	.st102{fill:#F12A00;stroke:#FFFFFF;stroke-linecap:round;stroke-linejoin:round;stroke-miterlimit:10;}
	.st103{fill:#F7C86C;stroke:#000000;stroke-width:1.0164;stroke-miterlimit:10;}
</style><g id="Refrences" class="st0"/><g id="Tittle"/><g id="Icons"><g><g><path class="st43" d="M89.66,70.13l-1.03,2.59c-0.15,0.39-0.53,0.64-0.95,0.64H18.61h-0.35c-1.99,0-3.75-1.27-4.38-3.16     l-3.55-10.64c-0.24-0.72-0.07-1.51,0.45-2.06l1.16-1.23"/><path class="st43" d="M88.94,71.27H19.44c-1.4,0-3.51-1.28-3.9-2.36L12,57.15c-0.19-0.54,0.13-0.88,0.83-0.88h54.38     c0.7,0,1.67,0.34,2.5,0.88l18.67,11.76C90.04,69.99,90.34,71.27,88.94,71.27z"/><path class="st43" d="M65.42,56.27l-52.85,0c-1.89,0-3.76-1.73-4.18-3.87L2.08,20.15c-0.42-2.14,0.77-3.87,2.66-3.87l52.85,0     c1.89,0,3.76,1.73,4.18,3.87l6.32,32.25C68.5,54.54,67.31,56.27,65.42,56.27z"/><path class="st43" d="M14.08,53.53c-0.55,0-3.15-0.51-3.27-1.14L4.5,20.15c-0.12-0.63,0.23-1.14,0.78-1.14l52.85,0     c0.55,0,1.1,0.51,1.23,1.14l6.32,32.25c0.12,0.63-0.23,1.14-0.78,1.14H14.08z"/><path class="st36" d="M91.82,70.13l-1.03,2.59c-0.15,0.39-0.53,0.64-0.95,0.64H20.78h-0.35c-1.99,0-3.75-1.27-4.38-3.16     L12.5,59.57c-0.24-0.72-0.07-1.51,0.45-2.06l1.16-1.23"/><path class="st32" d="M91.11,71.27H21.6c-1.4,0-3.51-1.28-3.9-2.36l-3.54-11.76c-0.19-0.54,0.13-0.88,0.83-0.88h54.38     c0.7,0,1.67,0.34,2.5,0.88l18.67,11.76C92.21,69.99,92.51,71.27,91.11,71.27z"/><path class="st41" d="M16.56,65.09l1.15,3.82c0.38,1.08,2.5,2.36,3.9,2.36h8.98l-5.84-6.18H16.56z"/><path class="st41" d="M61.19,68.99H44.76c-0.34,0-0.7-0.21-0.81-0.47l-0.64-1.47c-0.09-0.21,0.07-0.37,0.36-0.37h14.24     c0.29,0,0.76,0.16,1.07,0.37l2.13,1.47C61.49,68.78,61.53,68.99,61.19,68.99z"/><path class="st32" d="M67.59,56.27l-52.85,0c-1.89,0-3.76-1.73-4.18-3.87L4.25,20.15c-0.42-2.14,0.77-3.87,2.66-3.87l52.85,0     c1.89,0,3.76,1.73,4.18,3.87l6.32,32.25C70.67,54.54,69.48,56.27,67.59,56.27z"/><path class="st38" d="M16.25,53.53c-0.55,0-3.15-0.51-3.27-1.14L6.67,20.15c-0.12-0.63,0.23-1.14,0.78-1.14l52.85,0     c0.55,0,1.1,0.51,1.23,1.14l6.32,32.25c0.12,0.63-0.23,1.14-0.78,1.14H16.25z"/><g><path class="st44" d="M20.56,63.54l-0.59-4.67c-0.04-0.29,0.19-0.46,0.6-0.46h47.27c0.41,0,0.96,0.17,1.47,0.46l8.24,4.67      c1.28,0.73,1.63,1.73,0.6,1.73H23.23C22.2,65.27,20.65,64.27,20.56,63.54z"/><g><polygon class="st44" points="35.24,65.27 30.45,65.27 26.34,58.4 30.56,58.4      "/><polygon class="st44" points="47.14,65.27 42.35,65.27 36.84,58.4 41.06,58.4      "/><polygon class="st44" points="59.03,65.27 54.25,65.27 47.34,58.4 51.56,58.4      "/><polygon class="st44" points="70.93,65.27 66.14,65.27 57.84,58.4 62.07,58.4      "/></g></g><polygon class="st11" points="76.01,62.67 20.58,62.95 20.2,60.73 72.59,60.73    "/><polygon class="st45" points="66.61,47.06 67.6,50.28 12.07,36.18 11.04,32.95    "/><polygon class="st45" points="64.23,35.16 65.22,37.88 7.65,23.78 6.61,21.05    "/><path class="st11" d="M14.21,53.53c-0.55,0-1.1-0.51-1.23-1.14L6.67,20.15c-0.12-0.63,0.23-1.14,0.78-1.14l52.85,0     c0.55,0,1.1,0.51,1.23,1.14l6.32,32.25c0.12,0.63-0.23,1.14-0.78,1.14L14.21,53.53z"/><g><path class="st41" d="M19.28,50.97h-1c-0.34,0-0.68-0.31-0.75-0.7l-1.16-5.93c-0.08-0.38,0.14-0.7,0.48-0.7h1      c0.34,0,0.68,0.31,0.75,0.7l1.16,5.93C19.84,50.66,19.62,50.97,19.28,50.97z"/><path class="st41" d="M22.41,50.97h-0.55c-0.47,0-0.93-0.43-1.03-0.96L18.5,38.14c-0.1-0.53,0.19-0.96,0.66-0.96h0.55      c0.47,0,0.93,0.43,1.03,0.96l2.33,11.88C23.17,50.55,22.87,50.97,22.41,50.97z"/><path class="st41" d="M29.63,50.97h-1c-0.34,0-0.68-0.31-0.75-0.7l-1.16-5.93c-0.08-0.38,0.14-0.7,0.48-0.7h1      c0.34,0,0.68,0.31,0.75,0.7l1.16,5.93C30.18,50.66,29.97,50.97,29.63,50.97z"/><path class="st41" d="M32.75,50.97h-0.55c-0.47,0-0.93-0.43-1.03-0.96l-2.33-11.88c-0.1-0.53,0.19-0.96,0.66-0.96h0.55      c0.47,0,0.93,0.43,1.03,0.96l2.33,11.88C33.51,50.55,33.22,50.97,32.75,50.97z"/><path class="st41" d="M39.98,50.97h-1c-0.34,0-0.68-0.31-0.75-0.7l-1.16-5.93c-0.08-0.38,0.14-0.7,0.48-0.7h1      c0.34,0,0.68,0.31,0.75,0.7l1.16,5.93C40.53,50.66,40.32,50.97,39.98,50.97z"/><path class="st41" d="M43.1,50.97h-0.55c-0.47,0-0.93-0.43-1.03-0.96L39.2,38.14c-0.1-0.53,0.19-0.96,0.66-0.96h0.55      c0.47,0,0.93,0.43,1.03,0.96l2.33,11.88C43.86,50.55,43.57,50.97,43.1,50.97z"/><path class="st41" d="M50.33,50.97h-1c-0.34,0-0.68-0.31-0.75-0.7l-1.16-5.93c-0.08-0.38,0.14-0.7,0.48-0.7h1      c0.34,0,0.68,0.31,0.75,0.7l1.16,5.93C50.88,50.66,50.67,50.97,50.33,50.97z"/><path class="st41" d="M53.45,50.97H52.9c-0.47,0-0.93-0.43-1.03-0.96l-2.33-11.88c-0.1-0.53,0.19-0.96,0.66-0.96h0.55      c0.47,0,0.93,0.43,1.03,0.96l2.33,11.88C54.21,50.55,53.91,50.97,53.45,50.97z"/><path class="st41" d="M60.67,50.97h-1c-0.34,0-0.68-0.31-0.75-0.7l-1.16-5.93c-0.08-0.38,0.14-0.7,0.48-0.7h1      c0.34,0,0.68,0.31,0.75,0.7l1.16,5.93C61.23,50.66,61.01,50.97,60.67,50.97z"/><path class="st41" d="M63.79,50.97h-0.55c-0.47,0-0.93-0.43-1.03-0.96l-2.33-11.88c-0.1-0.53,0.19-0.96,0.66-0.96h0.55      c0.47,0,0.93,0.43,1.03,0.96l2.33,11.88C64.55,50.55,64.26,50.97,63.79,50.97z"/></g><g><path class="st41" d="M25,26.26l0.22,1.14c0.08,0.38-0.14,0.7-0.48,0.7h-5.23c-0.34,0-0.68-0.31-0.75-0.7l-0.22-1.14      c-0.08-0.38,0.14-0.7,0.48-0.7h5.23C24.59,25.57,24.92,25.88,25,26.26z"/><path class="st41" d="M24.31,22.73l0.12,0.62c0.1,0.53-0.19,0.96-0.66,0.96H13.29c-0.47,0-0.93-0.43-1.03-0.96l-0.12-0.62      c-0.1-0.53,0.19-0.96,0.66-0.96h10.49C23.74,21.77,24.2,22.2,24.31,22.73z"/></g><path class="st11" d="M91.11,71.27H21.6c-1.4,0-3.51-1.28-3.9-2.36l-3.54-11.76c-0.19-0.54,0.13-0.88,0.83-0.88h54.38     c0.7,0,1.67,0.34,2.5,0.88l18.67,11.76C92.21,69.99,92.51,71.27,91.11,71.27z"/><path class="st8" d="M83.07,70.13c1.19,0,2.16-4.21,2.16-9.4s-0.97-9.4-2.16-9.4h-2.16v18.81H83.07z"/><g><path class="st43" d="M8.9,33.62l4.35-2.96c2.4-1.63,5.51-1.88,8.14-0.64c1.53,0.72,3.37,0.4,4.58-0.79l5.23-5.18      c2.08-2.06,5.12-2.87,7.95-2.1l12.82,3.48c1.11,0.3,2.3,0.11,3.26-0.51L79.71,9.04c0.97-0.63,2.26-0.35,2.89,0.62      s0.35,2.26-0.62,2.89L57.49,28.42c-1.96,1.27-4.38,1.65-6.63,1.04l-12.82-3.48c-1.39-0.38-2.89,0.02-3.91,1.03L28.9,32.2      c-2.44,2.43-6.18,3.07-9.3,1.61c-1.29-0.61-2.83-0.48-4,0.32l-4.35,2.96c-0.36,0.25-0.77,0.36-1.17,0.36"/></g><path d="M84.75,16.71l5.67-9.34c0.05-0.08,0.07-0.17,0.07-0.26V5.53L77.61,3.68c-0.4-0.06-0.76,0.83-0.57,1.19l6.85,11.83     C84.07,17.03,84.55,17.04,84.75,16.71z"/><g><path class="st26" d="M9.76,35.19l4.35-2.96c2.4-1.63,5.51-1.88,8.14-0.64c1.53,0.72,3.37,0.4,4.58-0.79l5.23-5.18      c2.08-2.06,5.12-2.87,7.95-2.1l12.82,3.48c1.11,0.3,2.3,0.11,3.26-0.51l24.49-15.87c0.97-0.63,2.26-0.35,2.89,0.62      c0.63,0.97,0.35,2.26-0.62,2.89L58.36,29.99c-1.96,1.27-4.38,1.65-6.63,1.04l-12.82-3.48c-1.39-0.38-2.89,0.02-3.91,1.03      l-5.23,5.18c-2.44,2.43-6.18,3.07-9.3,1.61c-1.29-0.61-2.83-0.48-4,0.32l-4.35,2.96c-0.36,0.25-1.32,0.53-1.72,0.53L9.76,35.19z      "/></g><polygon class="st26" points="85.17,19.01 90.11,7.21 77.49,5.1    "/><path class="st11" d="M62.87,27.06l4.96,25.33c0.12,0.63-0.23,1.14-0.78,1.14h-50.8c-0.55,0-3.15-0.51-3.27-1.14L6.67,20.15     c-0.12-0.63,0.23-1.14,0.78-1.14l52.85,0"/><ellipse class="st13" cx="80.91" cy="60.73" rx="2.16" ry="9.4"/></g><g><g><g><path class="st5" d="M45.24,90.32H11.13c-0.49,0-0.88-0.39-0.88-0.88v-1.6c0-0.49,0.39-0.88,0.88-0.88h34.12       c0.49,0,0.88,0.39,0.88,0.88v1.6C46.12,89.93,45.73,90.32,45.24,90.32z"/></g><g><g><path class="st5" d="M44.02,83.6H9.02c-0.49,0-0.88-0.39-0.88-0.88v-1.6c0-0.49,0.39-0.88,0.88-0.88h34.99V83.6z"/><path class="st5" d="M41.72,86.96H6.73c-0.49,0-0.88-0.39-0.88-0.88v-1.6c0-0.49,0.39-0.88,0.88-0.88h34.99V86.96z"/></g></g></g><g><g><path class="st10" d="M47.97,90.32H13.85c-0.49,0-0.88-0.39-0.88-0.88v-1.6c0-0.49,0.39-0.88,0.88-0.88h34.12       c0.49,0,0.88,0.39,0.88,0.88v1.6C48.84,89.93,48.45,90.32,47.97,90.32z"/></g><g><g><path class="st10" d="M45.86,83.6H11.75c-0.49,0-0.88-0.39-0.88-0.88v-1.6c0-0.49,0.39-0.88,0.88-0.88h34.12        c0.49,0,0.88,0.39,0.88,0.88v1.6C46.74,83.21,46.35,83.6,45.86,83.6z"/><path class="st10" d="M43.57,86.96H9.45c-0.49,0-0.88-0.39-0.88-0.88v-1.6c0-0.49,0.39-0.88,0.88-0.88h34.12        c0.49,0,0.88,0.39,0.88,0.88v1.6C44.45,86.57,44.05,86.96,43.57,86.96z"/></g></g></g><g><rect x="27.27" y="86.96" class="st14" width="12.72" height="3.36"/></g><g><g><rect x="25.17" y="80.24" class="st14" width="12.72" height="3.36"/><rect x="22.87" y="83.6" class="st14" width="12.72" height="3.36"/></g></g><g><g><path class="st11" d="M47.97,90.32H13.85c-0.49,0-0.88-0.39-0.88-0.88v-1.6c0-0.49,0.39-0.88,0.88-0.88h34.12       c0.49,0,0.88,0.39,0.88,0.88v1.6C48.84,89.93,48.45,90.32,47.97,90.32z"/></g><g><g><path class="st11" d="M45.86,83.6H11.75c-0.49,0-0.88-0.39-0.88-0.88v-1.6c0-0.49,0.39-0.88,0.88-0.88h34.12        c0.49,0,0.88,0.39,0.88,0.88v1.6C46.74,83.21,46.35,83.6,45.86,83.6z"/><path class="st11" d="M43.57,86.96H9.45c-0.49,0-0.88-0.39-0.88-0.88v-1.6c0-0.49,0.39-0.88,0.88-0.88h34.12        c0.49,0,0.88,0.39,0.88,0.88v1.6C44.45,86.57,44.05,86.96,43.57,86.96z"/></g></g></g></g></g></g><g id="Layer_4"/></svg>