<?xml version="1.0" encoding="iso-8859-1"?>
<!-- Generator: Adobe Illustrator 16.0.0, SVG Export Plug-In . SVG Version: 6.00 Build 0)  -->
<!DOCTYPE svg PUBLIC "-//W3C//DTD SVG 1.1//EN" "http://www.w3.org/Graphics/SVG/1.1/DTD/svg11.dtd">
<svg version="1.1" id="Capa_1" xmlns="http://www.w3.org/2000/svg" xmlns:xlink="http://www.w3.org/1999/xlink" x="0px" y="0px"
	 width="485.213px" height="485.212px" viewBox="0 0 485.213 485.212" style="enable-background:new 0 0 485.213 485.212;"
	 xml:space="preserve">
<g>
	<path d="M90.979,257.772l-30.327,0.032l-0.061-30.331h30.387V257.772z M92.607,138.481L77.444,164.78l26.271,15.161l15.161-26.299
		L92.607,138.481z M424.562,242.637c0-100.485-81.473-181.953-181.955-181.953v363.909
		C343.09,424.592,424.562,343.119,424.562,242.637z M164.749,77.445l-26.267,15.161l15.161,26.269l26.269-15.161L164.749,77.445z
		 M103.715,305.301l-26.299,15.196l15.191,26.238l26.269-15.191L103.715,305.301z M242.607,485.212
		c-133.978,0-242.606-108.631-242.606-242.606C0.001,108.628,108.629,0,242.607,0c133.978,0,242.604,108.628,242.604,242.606
		C485.212,376.582,376.585,485.212,242.607,485.212z M242.607,454.886c117.041,0,212.282-95.241,212.282-212.28
		c0-117.038-95.241-212.279-212.282-212.279c-117.039,0-212.28,95.241-212.28,212.279
		C30.328,359.645,125.568,454.886,242.607,454.886z M153.671,366.337l-15.189,26.299l26.267,15.131l15.163-26.271L153.671,366.337z"
		/>
</g>
<g>
</g>
<g>
</g>
<g>
</g>
<g>
</g>
<g>
</g>
<g>
</g>
<g>
</g>
<g>
</g>
<g>
</g>
<g>
</g>
<g>
</g>
<g>
</g>
<g>
</g>
<g>
</g>
<g>
</g>
</svg>
